<?xml version="1.0" ?><svg viewBox="0 0 64 64" xmlns="http://www.w3.org/2000/svg"><g data-name="group meeting" id="group_meeting"><rect height="16" rx="2" style="fill:none;stroke:#0a1c28;stroke-miterlimit:10;stroke-width:2px" width="14" x="25" y="23"/><circle cx="32" cy="28" r="2" style="fill:#0a1c28"/><path d="M30,30h4a2,2,0,0,1,2,2v4a0,0,0,0,1,0,0H28a0,0,0,0,1,0,0V32A2,2,0,0,1,30,30Z" style="fill:#0a1c28"/><rect height="16" rx="2" style="fill:none;stroke:#0a1c28;stroke-miterlimit:10;stroke-width:2px" width="14" x="25" y="3"/><circle cx="32" cy="8" r="2" style="fill:#0a1c28"/><path d="M30,10h4a2,2,0,0,1,2,2v4a0,0,0,0,1,0,0H28a0,0,0,0,1,0,0V12A2,2,0,0,1,30,10Z" style="fill:#0a1c28"/><rect height="16" rx="2" style="fill:none;stroke:#0a1c28;stroke-miterlimit:10;stroke-width:2px" width="14" x="7" y="23"/><circle cx="14" cy="28" r="2" style="fill:#0a1c28"/><path d="M12,30h4a2,2,0,0,1,2,2v4a0,0,0,0,1,0,0H10a0,0,0,0,1,0,0V32A2,2,0,0,1,12,30Z" style="fill:#0a1c28"/><rect height="16" rx="2" style="fill:none;stroke:#0a1c28;stroke-miterlimit:10;stroke-width:2px" width="14" x="7" y="3"/><circle cx="14" cy="8" r="2" style="fill:#0a1c28"/><path d="M12,10h4a2,2,0,0,1,2,2v4a0,0,0,0,1,0,0H10a0,0,0,0,1,0,0V12A2,2,0,0,1,12,10Z" style="fill:#0a1c28"/><rect height="16" rx="2" style="fill:none;stroke:#0a1c28;stroke-miterlimit:10;stroke-width:2px" width="14" x="43" y="23"/><circle cx="50" cy="28" r="2" style="fill:#0a1c28"/><path d="M48,30h4a2,2,0,0,1,2,2v4a0,0,0,0,1,0,0H46a0,0,0,0,1,0,0V32A2,2,0,0,1,48,30Z" style="fill:#0a1c28"/><rect height="16" rx="2" style="fill:none;stroke:#0a1c28;stroke-miterlimit:10;stroke-width:2px" width="14" x="43" y="3"/><circle cx="50" cy="8" r="2" style="fill:#0a1c28"/><path d="M48,10h4a2,2,0,0,1,2,2v4a0,0,0,0,1,0,0H46a0,0,0,0,1,0,0V12A2,2,0,0,1,48,10Z" style="fill:#0a1c28"/><path d="M7,10a4,4,0,0,0-4,4V44a4,4,0,0,0,4,4H57a4,4,0,0,0,4-4V14a4,4,0,0,0-4-4" style="fill:none;stroke:#0a1c28;stroke-linejoin:round;stroke-width:2px"/><line style="fill:none;stroke:#0a1c28;stroke-miterlimit:10;stroke-width:2px" x1="3" x2="61" y1="43" y2="43"/><path d="M41,48a2,2,0,0,0-2,2v4a3,3,0,0,0,3,3h3a2,2,0,0,1,2,2v2H17V59a2,2,0,0,1,2-2h3a3,3,0,0,0,3-3V50a2,2,0,0,0-2-2" style="fill:none;stroke:#0a1c28;stroke-linejoin:round;stroke-width:2px"/><line style="fill:none;stroke:#0a1c28;stroke-linejoin:round;stroke-width:2px" x1="21" x2="25" y1="10" y2="10"/><line style="fill:none;stroke:#0a1c28;stroke-linejoin:round;stroke-width:2px" x1="39" x2="43" y1="10" y2="10"/></g></svg>